<svg version="1" xmlns="http://www.w3.org/2000/svg" width="1365.333" height="1365.333" viewBox="0 0 1024.000000 1024.000000"><path d="M508 132.2c-1.4.6-3.4 1.4-4.5 1.9-2.2.9-49.1 18.7-59 22.4-9.9 3.6-104.8 39.6-108 41-1.6.7-21.2 8.1-43.5 16.5s-44.5 16.8-49.5 18.7c-4.9 1.9-11.5 4.4-14.5 5.5-3 1.1-6.8 2.6-8.5 3.3-1.6.7-6.4 2.5-10.5 4-4.1 1.4-8.4 3-9.5 3.5-1.1.5-21.7 8.3-45.8 17.5-24.1 9.1-44.6 17-45.5 17.6-4.3 2.7-4.9 5.7-4.8 24 .1 16.7.2 17.5 2.5 20.8 4 5.6 6.6 6.1 30.3 6.1h21.3l.1 12.9c0 12.1.2 13.1 2.8 17.5 1.5 2.5 4.6 5.9 6.9 7.4l4.2 2.7H512c333.7 0 339.6 0 342.5-1.9 9.1-5.9 10.8-10 10.9-25.9V335h21.2c22.4 0 25.4-.5 29.2-4.5 3.6-3.9 4-6.2 4-23.1-.1-16.8-.9-20.7-4.9-23.3-1.1-.6-8.6-3.7-16.7-6.7-8.1-3.1-19.2-7.3-24.7-9.4-5.5-2.1-18.3-6.9-28.5-10.8-10.2-3.8-28.8-10.9-41.5-15.7-12.6-4.8-25.7-9.8-29-11-3.3-1.3-13.6-5.2-23-8.8-19-7.2-75.7-28.7-85-32.2-3.3-1.2-9.6-3.6-14-5.3-4.4-1.6-17.4-6.6-29-11-11.5-4.4-37.9-14.4-58.5-22.2-20.6-7.8-40.8-15.5-44.9-17.1-8.1-3.2-8.5-3.2-12.1-1.7zM240.1 565.6c0 89.4-.1 162.8-.4 163-.2.2-15.4.5-33.8.7l-33.4.2-4.3 2.9c-2.4 1.6-5.5 5-6.9 7.4-2.6 4.5-2.7 4.8-2.7 24.1l-.1 19.6 352 .1c193.6 0 352.7-.1 353.5-.3 1.4-.4 1.6-3.2 1.5-19.7-.1-18.9-.1-19.3-2.7-23.7-1.5-2.5-4.6-5.9-7-7.5l-4.3-2.9-33.3-.2c-18.4-.1-33.6-.4-33.9-.6-.2-.3-.5-73.7-.4-163.1V403H675v326h-3.2c-5.1.1-95.7.1-100.8.1l-4.6-.1.1-162.1c0-89.1-.3-162.5-.6-163s-22.7-.8-54.4-.7l-53.9.3V729h-6.1c-8.3.1-95.2.1-99.2.1l-3.3-.1V403H240.1v162.6zM133.5 812.4c-10.8 3.4-20.2 11.3-24.8 20.6-3.9 8-4 8.5-4.3 29.5-.2 20.2.1 21.9 4.8 26.1 1.2 1.2 3.4 2.5 4.8 3 3.3 1 790.5 1.2 795 .1 2.2-.5 4.9-2.3 7.2-4.9l3.6-4.1v-18.6c-.1-20-.9-25.1-5.5-32.9-3.9-6.9-10.7-13-18-16.5l-6.8-3.2-376-.2c-301.8-.1-376.8.1-380 1.1z"/></svg>